<svg width="55" height="63" viewBox="0 0 55 63" fill="none" xmlns="http://www.w3.org/2000/svg">
<path d="M18.0578 41.7893C17.7401 41.955 17.4958 42.2428 17.3758 42.5927C17.2557 42.9427 17.2693 43.3277 17.4136 43.6674L23.3349 57.5813C24.9591 61.398 29.8178 61.398 31.4419 57.5813L42.3651 31.9114C42.4806 31.6399 42.5133 31.3376 42.4586 31.046C42.404 30.7543 42.2647 30.4874 42.0598 30.2819C41.855 30.0763 41.5945 29.9421 41.3141 29.8976C41.0336 29.8531 40.7469 29.9005 40.4932 30.0333L18.0578 41.7893Z" fill="#EEEEEE"/>
<path d="M17.0172 37.8863C16.8579 37.9694 16.6841 38.0179 16.5064 38.0289C16.3287 38.0399 16.1507 38.0132 15.9831 37.9504C15.8155 37.8875 15.6619 37.7898 15.5314 37.6632C15.4009 37.5366 15.2963 37.3837 15.2239 37.2137L4.16572 11.2961C2.40666 7.17492 6.31511 2.89666 9.97302 4.93931L25.5435 13.6282C26.7567 14.3035 28.1808 14.3035 29.3913 13.6282L44.9619 4.93931C48.6198 2.89666 52.5282 7.17216 50.7692 11.2961L46.6233 21.0131C46.126 22.1784 45.2573 23.1274 44.1654 23.6981L17.0172 37.8863Z" fill="#00ADB5"/>
</svg>
